<?xml version="1.0" ?><!DOCTYPE svg  PUBLIC '-//W3C//DTD SVG 1.1//EN'  'http://www.w3.org/Graphics/SVG/1.1/DTD/svg11.dtd'><svg enable-background="new 0 0 91 91" height="91px" id="Layer_1" version="1.1" viewBox="0 0 91 91" width="91px" xml:space="preserve" xmlns="http://www.w3.org/2000/svg" xmlns:xlink="http://www.w3.org/1999/xlink"><g><g><g><path d="M22.696,26.29c-4.01-1.076-8.357-0.242-11.742,2.303c-3.549,2.668-7.721,8.42-7.439,20.672     c0.264,11.627,3.168,20.039,8.627,25.002c3.555,3.234,8.18,4.889,13.475,4.852c-6.449-6.148-9.016-18.375-9.213-27.551     C16.153,39.936,18.413,31.045,22.696,26.29z" fill="#F69B77"/><path d="M80.765,28.151c-4.615-3.486-10.018-2.594-12.559-1.873c3.158,3.627,6.609,10.889,6.301,25.29     c-0.256,12.182-3.748,22.188-9.4,27.16c8.268-0.348,21.797-2.867,22.574-28.914C87.993,39.297,85.603,31.809,80.765,28.151z" fill="#F69B77"/><path d="M52.786,27.444c-1.928-2.596-4.641-4.086-7.439-4.086c-3.191,0-6.049,1.912-7.648,5.113     c-3.596,7.225-2.229,36.118,2.252,47.563c1.561,3.986,3.939,6.273,6.525,6.273c2.809,0,5.461-2.689,6.594-6.691     C55.985,65.312,56.897,32.983,52.786,27.444z" fill="#F69B77"/><path d="M45.347,21.678c1.049,0,2.082,0.191,3.082,0.521c0.184-2.627,2.869-8.281,5.385-10.535     c-2.984-1.668-4.379-2.586-5.004-3.039c-6.145,2.807-10.414,8.893-11.826,16.799c0.143,0.141,0.293,0.281,0.406,0.406     C39.358,23.209,42.204,21.678,45.347,21.678z" fill="#B8AC7D"/><path d="M36.196,27.723c0.072-0.145,0.16-0.27,0.238-0.41c-0.244-0.365-1.008-1.09-1.795-1.684     c-2.389-1.682-5.258-1.857-7.861-0.479c-2.752,1.467-9.111,6.973-8.695,26.379c0.223,10.328,3.473,22.889,10.234,27.674     c2.889,2.043,6.172,2.477,9.758,1.295c0.268-0.129,1.08-0.561,1.705-1.041c-0.514-0.836-0.986-1.766-1.396-2.811     C33.8,64.929,32.468,35.208,36.196,27.723z" fill="#F9BA8F"/><path d="M72.827,51.53c0.42-19.553-6.119-25.182-8.951-26.694c-2.676-1.434-5.643-1.258-8.127,0.48     c0.006,0-0.717,0.652-1.305,1.619c4.314,7.377,2.934,39.627,0.244,49.137c-0.459,1.615-1.141,3.02-1.965,4.197     c3.932,0.805,7.426,0.121,10.385-2.074C68.849,73.937,72.571,63.718,72.827,51.53z" fill="#F9BA8F"/></g><g><path d="M46.476,85.669L46.476,85.669c-3.934,0-7.367-3.006-9.42-8.248c-4.422-11.295-6.359-41.606-2.139-50.081     c2.135-4.281,6.033-6.838,10.428-6.838c3.797,0,7.418,1.947,9.938,5.342c5.273,7.105,3.334,41.842,0.779,50.872     C54.521,82.155,50.757,85.669,46.476,85.669z M45.345,25.04c-2.676,0-4.998,1.576-6.367,4.322     c-3.402,6.834-1.982,35.458,2.301,46.405c1.336,3.41,3.23,5.367,5.197,5.367c2.131,0,4.277-2.326,5.221-5.654     c2.975-10.512,3.438-42.223-0.057-46.932C49.985,26.317,47.69,25.04,45.345,25.04z" fill="#434B56"/><path d="M34.272,84.503c-2.766,0-5.391-0.842-7.748-2.51c-8.172-5.777-11.328-19.85-11.549-30.143     c-0.436-20.372,6.293-27.032,10.344-29.19c3.617-1.928,7.777-1.666,11.131,0.695c1.023,0.721,1.27,2.135,0.549,3.16     c-0.721,1.023-2.137,1.27-3.16,0.549c-1.955-1.377-4.283-1.521-6.389-0.4c-5.248,2.795-8.217,12.174-7.939,25.088     c0.256,11.98,4.127,22.645,9.633,26.537c2.533,1.791,5.307,2.154,8.484,1.105c1.189-0.389,2.471,0.254,2.863,1.443     s-0.254,2.473-1.443,2.865C37.425,84.237,35.827,84.503,34.272,84.503z" fill="#434B56"/><path d="M25.454,82.497c-6.006,0-11.297-1.943-15.402-5.678c-6.115-5.559-9.359-14.721-9.645-27.23     C0.097,36.018,4.954,29.467,9.085,26.36c4.336-3.262,9.975-4.252,15.082-2.65c1.195,0.375,1.859,1.646,1.484,2.842     c-0.373,1.195-1.646,1.861-2.842,1.486c-3.715-1.164-7.828-0.438-10.998,1.947c-3.281,2.469-7.135,7.854-6.869,19.5     c0.256,11.221,3.002,19.287,8.16,23.979c4.592,4.174,10.207,4.715,14.107,4.434c1.246-0.08,2.334,0.848,2.426,2.098     c0.09,1.25-0.85,2.336-2.1,2.426C26.833,82.472,26.138,82.497,25.454,82.497z" fill="#434B56"/><path d="M55.271,84.571c-1.012,0-2.041-0.1-3.08-0.305c-1.229-0.24-2.029-1.432-1.789-2.662     c0.24-1.229,1.432-2.033,2.662-1.789c3.27,0.641,6.271-0.115,8.918-2.246c5.484-4.418,9.182-14.551,9.418-25.814     c0.279-13.018-2.785-22.516-8.195-25.407c-2.191-1.17-4.609-1.027-6.639,0.393c-1.025,0.715-2.441,0.467-3.158-0.559     c-0.719-1.025-0.469-2.439,0.557-3.158c3.428-2.398,7.682-2.65,11.379-0.676c7.053,3.768,10.912,14.521,10.592,29.502     c-0.268,12.738-4.523,23.947-11.107,29.25C61.978,83.397,58.718,84.571,55.271,84.571z" fill="#434B56"/><path d="M62.899,82.147c-1.232,0-2.244-0.988-2.266-2.229c-0.023-1.252,0.975-2.285,2.227-2.307     c7.893-0.141,22.582-0.404,23.393-27.59c0.299-10.032-1.896-17.114-6.35-20.479c-4.396-3.322-9.678-2.162-11.742-1.508     c-1.197,0.377-2.469-0.285-2.848-1.479c-0.377-1.195,0.285-2.469,1.479-2.846c5.787-1.832,11.563-1.023,15.846,2.213     c5.758,4.35,8.498,12.504,8.15,24.233c-0.834,27.928-15.32,31.766-27.848,31.99C62.927,82.147,62.913,82.147,62.899,82.147z" fill="#434B56"/><path d="M49.722,26.026c-0.219,0-0.439-0.031-0.656-0.098c-0.488-0.148-2.082-0.809-2.1-3.141     c-0.018-2.25,2.041-7.344,4.584-10.512c-1.316-0.762-2.23-1.33-2.867-1.75c-5.834,2.992-8.99,8.791-9.936,13.043     c-0.271,1.223-1.484,1.994-2.707,1.721c-1.223-0.271-1.994-1.482-1.721-2.705c1.238-5.57,5.574-13.303,13.721-16.764     c0.834-0.352,1.799-0.178,2.453,0.445c-0.002,0-0.002,0-0.002,0c0.006,0,1.135,0.914,6.037,3.604     c0.795,0.436,1.254,1.303,1.166,2.207c-0.088,0.902-0.703,1.666-1.568,1.941c-1.289,0.65-4.318,6.215-4.605,8.359     c0.428,0.559,0.59,1.309,0.371,2.035C51.595,25.393,50.694,26.026,49.722,26.026z" fill="#434B56"/></g></g></g></svg>