<?xml version="1.0" ?><svg id="Layer_1_1_" style="enable-background:new 0 0 64 64;" version="1.1" viewBox="0 0 64 64" xml:space="preserve" xmlns="http://www.w3.org/2000/svg" xmlns:xlink="http://www.w3.org/1999/xlink"><g><g><path d="M51,8h3c4.418,0,8,3.582,8,8v8H2v-8c0-4.418,3.582-8,8-8h3H51z" style="fill:#CF9E76;"/><path d="M12.651,11.208C17.039,14.343,22.209,16,27.603,16H45c4.411,0,8-3.589,8-8h-2H13h-2    C11,9.271,11.617,10.472,12.651,11.208z" style="fill:#B27946;"/><path d="M13.814,6.419L13.814,6.419C13.303,6.784,13,7.372,13,8v0c0,0.628,0.303,1.216,0.814,1.581l0,0    C17.837,12.455,22.658,14,27.602,14H45c3.314,0,6-2.686,6-6v0c0-3.314-2.686-6-6-6H27.602C22.658,2,17.837,3.545,13.814,6.419z" style="fill:#FCD770;"/><path d="M41,7l0.276-0.002C37.889,6.015,34.719,4.33,32,2h-3.073l1.771,1.519    c1.547,1.326,3.241,2.439,5.022,3.374c-2.209,1.348-4.046,3.287-5.23,5.655L29.765,14H32l0.28-0.559    C33.989,10.022,37.23,7.628,41,7z" style="fill:#FFC729;"/><path d="M51,8c0-0.365-0.038-0.721-0.1-1.068L41,7c-3.77,0.628-7.011,3.022-8.72,6.441L32,14h13    C48.314,14,51,11.314,51,8z" style="fill:#A0D468;"/><rect height="25" style="fill:#DFB28B;" width="4" x="54" y="22"/><rect height="26" style="fill:#DFB28B;" width="4" x="6" y="22"/><polygon points="62,20 9,20 7,20 2,20 2,24 62,24   " style="fill:#F5E0CD;"/><rect height="14" style="fill:#E6E9ED;" width="56" x="4" y="48"/><rect height="2" style="fill:#CCD1D9;" width="56" x="4" y="50"/><ellipse cx="32" cy="56" rx="10" ry="6" style="fill:#A0D468;"/><rect height="6" style="fill:#E6E9ED;" width="12" x="36" y="40"/><path d="M41,7c-1.06,0.177-2.071,0.507-3.025,0.946C41.204,9.276,44.677,10,48.22,10h2.432    C50.873,9.374,51,8.702,51,8c0-0.365-0.038-0.721-0.1-1.068L41,7z" style="fill:#8CC152;"/><path d="M45,2H32c4.517,3.872,10.27,6,16.22,6H51C51,4.686,48.314,2,45,2z" style="fill:#A0D468;"/><rect height="2" style="fill:#CF9E76;" width="4" x="6" y="24"/><rect height="2" style="fill:#CF9E76;" width="4" x="6" y="44"/><rect height="2" style="fill:#CF9E76;" width="4" x="54" y="24"/><rect height="2" style="fill:#CF9E76;" width="4" x="54" y="44"/><path d="M61,50H3c-0.552,0-1-0.448-1-1v-2c0-0.552,0.448-1,1-1h58c0.552,0,1,0.448,1,1v2    C62,49.552,61.552,50,61,50z" style="fill:#B27946;"/><path d="M19,40h-2c-0.552,0-1-0.448-1-1v-8c0-0.552,0.448-1,1-1h2c0.552,0,1,0.448,1,1v8    C20,39.552,19.552,40,19,40z" style="fill:#FCD770;"/><path d="M27,40h-2c-0.552,0-1-0.448-1-1v-8c0-0.552,0.448-1,1-1h2c0.552,0,1,0.448,1,1v8    C28,39.552,27.552,40,27,40z" style="fill:#FCD770;"/><rect height="2" style="fill:#CCD1D9;" width="12" x="36" y="44"/></g><g><rect height="2" width="2" x="16" y="7"/><rect height="2" width="2" x="22" y="9"/><rect height="2" width="2" x="22" y="5"/><rect height="2" width="2" x="28" y="5"/><rect height="2" width="2" x="28" y="9"/><path d="M63,25v-9c0-4.962-4.038-9-9-9h-2.08C51.432,3.613,48.519,1,45,1H27.603c-5.184,0-10.153,1.592-14.37,4.605c0,0,0,0,0,0    C12.744,5.955,12.399,6.449,12.198,7H10c-4.962,0-9,4.038-9,9v9h4v20H3c-1.103,0-2,0.897-2,2v2c0,1.103,0.897,2,2,2v12h58V51    c1.103,0,2-0.897,2-2v-2c0-1.103-0.897-2-2-2h-2V25H63z M48.22,9h1.679c-0.465,2.279-2.484,4-4.899,4H33.687    c1.644-2.632,4.349-4.476,7.434-5.004C43.415,8.65,45.801,9,48.22,9z M49.899,7H48.22c-4.718,0-9.303-1.417-13.202-4H45    C47.414,3,49.434,4.721,49.899,7z M14.395,7.233L14.395,7.233C18.271,4.463,22.838,3,27.603,3h4.054    c1.915,1.592,4.039,2.878,6.296,3.853c-2.82,1.189-5.175,3.355-6.567,6.14L31.382,13h-3.779c-4.764,0-9.332-1.463-13.208-4.233    C14.148,8.591,14,8.304,14,8S14.148,7.409,14.395,7.233z M3,21h4v-2H3v-3c0-3.86,3.14-7,7-7h2.197    c0.201,0.551,0.546,1.046,1.035,1.395C17.45,13.408,22.419,15,27.603,15H45c3.519,0,6.432-2.613,6.92-6H54c3.86,0,7,3.14,7,7v3H9    v2h52v2H3V21z M49,45v-6H35v6h-8v-4c1.103,0,2-0.897,2-2v-8c0-1.103-0.897-2-2-2h-2c-1.103,0-2,0.897-2,2v8c0,1.103,0.897,2,2,2v4    h-6v-4c1.103,0,2-0.897,2-2v-8c0-1.103-0.897-2-2-2h-2c-1.103,0-2,0.897-2,2v8c0,1.103,0.897,2,2,2v4h-6V25h42v20H49z M47,45H37    v-4h10V45z M25,39v-8h2l0.001,8H25z M17,39v-8h2l0.001,8H17z M7,25h2v20H7V25z M5,61V51h19.236C22.229,52.261,21,54.022,21,56    s1.229,3.739,3.236,5H5z M32,51c4.878,0,9,2.29,9,5s-4.122,5-9,5s-9-2.29-9-5S27.122,51,32,51z M59,61H39.764    C41.771,59.739,43,57.978,43,56s-1.229-3.739-3.236-5H59V61z M61.001,49H3v-2h58L61.001,49z M57,45h-2V25h2V45z"/><rect height="2" width="14" x="25" y="55"/></g></g></svg>