<?xml version="1.0" encoding="iso-8859-1"?>
<!-- Generator: Adobe Illustrator 19.0.0, SVG Export Plug-In . SVG Version: 6.00 Build 0)  -->
<svg version="1.1" id="Layer_1" xmlns="http://www.w3.org/2000/svg" xmlns:xlink="http://www.w3.org/1999/xlink" x="0px" y="0px"
	 viewBox="0 0 512.001 512.001" style="enable-background:new 0 0 512.001 512.001;" xml:space="preserve">
<path style="fill:#CC473C;" d="M339.305,325.312l-80.407-46.423l70.992-134.567c9.294-16.097,29.878-21.613,45.976-12.319
	l33.168,19.149c16.097,9.294,21.613,29.878,12.319,45.976L339.305,325.312z"/>
<path style="fill:#4BAA62;" d="M127.79,142.858c1.368-29.634-7.776-37.525-9.247-38.599c-12.29-4.873-18.954-18.455-14.99-31.309
	c4.17-13.506,18.494-21.064,31.986-16.896c4.797,1.47,45.48,16.153,43.46,86.088L127.79,142.858z"/>
<path style="fill:#F09F28;" d="M295.54,250.598c0,79.079-64.652,143.053-143.986,141.953
	c-77.044-1.075-139.676-64.396-139.945-141.454c-0.115-34.635,12.163-66.391,32.665-91.101
	c15.859-19.095,41.413-26.845,65.444-20.669c5.832,1.509,11.869,2.698,18.072,3.53c7.52,1.049,15.284,1.585,23.226,1.585
	c9.63,0,19.005-0.793,27.984-2.303c5.883-0.985,11.6-2.264,17.113-3.837c23.316-6.626,48.588,0.78,64.511,19.057
	C282.366,182.301,295.54,214.914,295.54,250.598z"/>
<path style="fill:#4A5678;" d="M384.605,269.667c-43.44,42.038-92.758,40.067-128.48,29.689
	c-17.536-5.095-33.403-14.538-47.162-26.547c-15.165-13.236-34.992-21.26-56.704-21.26c-47.678,0-86.33,38.652-86.33,86.33
	c0,45.088,42.611,82.08,85.904,91.233c72.222,15.268,162.003,23.874,281.373-89.527L384.605,269.667z"/>
<path style="fill:#4BAA62;" d="M441.786,351.917c-27.486-11.014-16.832-23.166-33.663-46.333
	c-16.832-23.166-31.681-16.789-33.663-46.333c29.136-21.169,67.827-17.585,86.418,8.004
	C479.47,292.844,470.923,330.748,441.786,351.917z"/>
<path style="fill:#F0EFF1;" d="M438.5,472.833H74.081c-34.185,0-61.897-27.712-61.897-61.897l0,0h488.213l0,0
	C500.396,445.121,472.684,472.833,438.5,472.833z"/>
<g>
	<path style="fill:#231F20;" d="M128.693,337.878c0-6.41-5.196-11.606-11.606-11.606c-6.41,0-11.606,5.196-11.606,11.606
		c0,7.438,2.766,15.308,7.997,22.76c2.258,3.217,5.854,4.938,9.509,4.938c2.304,0,4.631-0.685,6.658-2.109
		c5.246-3.682,6.513-10.921,2.829-16.167C130.037,343.826,128.693,340.48,128.693,337.878z"/>
	<path style="fill:#231F20;" d="M191.337,372.565c-5.212-0.765-10.654-1.698-16.637-2.855c-6.288-1.217-12.381,2.899-13.597,9.192
		c-1.216,6.294,2.899,12.381,9.192,13.597c6.331,1.223,12.112,2.214,17.674,3.03c0.571,0.084,1.137,0.124,1.699,0.124
		c5.664,0,10.622-4.152,11.468-9.923C202.065,379.39,197.678,373.494,191.337,372.565z"/>
	<path style="fill:#231F20;" d="M262.151,371.197c-5.288,1.159-10.691,2.076-16.06,2.725c-6.363,0.768-10.899,6.55-10.131,12.914
		c0.711,5.891,5.718,10.215,11.507,10.215c0.464,0,0.934-0.028,1.407-0.085c6.1-0.737,12.239-1.778,18.248-3.095
		c6.261-1.373,10.225-7.561,8.851-13.822C274.6,373.788,268.421,369.824,262.151,371.197z"/>
	<path style="fill:#231F20;" d="M339.9,363.167c5.441-3.388,7.106-10.545,3.718-15.986c-3.388-5.441-10.543-7.105-15.986-3.717
		c-4.812,2.995-9.659,5.807-14.412,8.362c-5.646,3.034-7.763,10.07-4.729,15.716c2.095,3.898,6.096,6.115,10.233,6.115
		c1.855,0,3.736-0.446,5.484-1.385C329.392,369.486,334.673,366.422,339.9,363.167z"/>
	<path style="fill:#231F20;" d="M500.396,399.331h-122.44c17.053-11.446,34.164-24.902,51.421-40.424
		c6.413,5.219,10.949,4.616,12.406,4.616c2.415,0,4.811-0.753,6.823-2.217c32.427-23.561,42.851-65.344,24.957-95.8
		c8.438-7.683,21.371-22.38,24.708-42.579c1.045-6.324-3.234-12.297-9.558-13.342c-6.324-1.047-12.299,3.236-13.342,9.558
		c-2.189,13.247-11.203,23.462-17.08,28.878c-12.981-10.164-29.655-14.93-46.779-13.993l19.615-30.645
		c0.095-0.149,0.187-0.301,0.275-0.454c6.045-10.471,7.652-22.668,4.522-34.346c-2.903-10.832-9.561-20.008-18.865-26.106
		l62.486-39.747c5.408-3.44,7.003-10.613,3.563-16.022s-10.612-7.005-16.022-3.563l-42.362,26.947l36.117-65.311
		c3.102-5.609,1.069-12.671-4.54-15.772c-5.604-3.101-12.67-1.07-15.772,4.54l-37.749,68.264l-0.612-56.775
		c-0.07-6.41-5.298-11.551-11.729-11.48c-6.409,0.07-11.549,5.32-11.48,11.73l0.815,75.633c-10.032-5.184-21.469-6.431-32.452-3.49
		c-11.679,3.129-21.439,10.619-27.483,21.089c-0.073,0.128-0.145,0.258-0.215,0.388l-25.855,49.01
		c-6.152-13.76-14.338-26.643-24.396-38.179c-18.8-21.578-48.804-30.45-76.447-22.593c-0.825,0.236-1.67,0.454-2.51,0.677
		c-3.696-66.203-46.308-81.278-51.45-82.854c-9.489-2.933-19.553-1.992-28.336,2.645c-8.784,4.639-15.236,12.422-18.168,21.919
		c-5.42,17.573,3.04,36.574,19.372,44.452c1.006,1.47,3.258,5.696,4.132,14.921c-1.125-0.261-2.247-0.527-3.36-0.815
		c-28.492-7.322-58.822,2.29-77.266,24.497c-22.908,27.61-35.459,62.609-35.339,98.552c0.174,49.979,24.747,94.695,62.367,122.697
		c4.078,8.956,9.67,17.539,16.63,25.497H12.183c-6.41,0-11.606,5.196-11.606,11.606c0,40.529,32.973,73.502,73.502,73.502h364.419
		c40.529,0,73.502-32.973,73.502-73.502C512.002,404.527,506.805,399.331,500.396,399.331z M451.489,274.077
		c13.687,18.837,8.379,46.513-11.407,64.311c-6.471-3.53-7.612-6.945-10.037-14.204c-2.132-6.383-5.052-15.125-12.533-25.421
		c-7.48-10.297-14.891-15.774-20.303-19.775c-4.401-3.253-7.131-5.283-8.827-8.82l5.52-8.623
		C415.335,252.607,439.183,257.139,451.489,274.077z M317.549,192.588l21.858,12.62c1.828,1.055,3.823,1.556,5.791,1.556
		c4.011,0,7.912-2.081,10.062-5.804c3.206-5.551,1.303-12.649-4.248-15.853l-22.626-13.063l11.654-22.09
		c2.952-5.011,7.664-8.595,13.29-10.103c5.688-1.525,11.63-0.743,16.732,2.203l33.168,19.149c5.101,2.946,8.75,7.7,10.275,13.389
		c1.504,5.613,0.763,11.471-2.086,16.525l-33.497,52.335c-0.022,0.012-0.045,0.022-0.067,0.035l-29.998-17.319
		c-5.553-3.207-12.65-1.303-15.853,4.248c-3.205,5.551-1.303,12.649,4.248,15.853l29.182,16.55l-9.285,14.652
		c-14.866,9.408-31.007,14.829-48.335,16.26l-5.843-3.374c3.407-12.803,5.176-26.138,5.176-39.758
		c0-10.805-1.145-21.498-3.36-31.923L317.549,192.588z M251.876,164.988c20.673,23.714,32.058,54.117,32.058,85.611
		c0,14.407-2.328,28.44-6.785,41.69c-5.819-0.974-11.746-2.323-17.786-4.078c-8.697-2.527-17.18-6.322-25.375-11.324
		c4.96-27.89,3.8-53.233-3.525-75.873c-7.807-24.129-21.26-40.51-33.115-51.022c0.644-0.175,1.298-0.34,1.935-0.522
		C218.307,144.062,238.952,150.153,251.876,164.988z M165.18,155.783c3.975,1.879,31.434,16.007,43.2,52.374
		c5.047,15.599,6.446,33.256,4.292,52.675c-13.793-10.829-30.199-17.725-47.492-20.028V155.783z M114.643,76.373
		c1.101-3.569,3.526-6.493,6.826-8.237c3.299-1.742,7.079-2.095,10.669-0.986c3.585,1.099,33.414,11.852,35.237,64.826
		c-9.216,0.944-18.667,1.087-27.94,0.418c-0.997-25.066-9.887-34.469-14.049-37.508c-0.793-0.579-1.655-1.055-2.568-1.417
		C116.1,90.805,112.508,83.294,114.643,76.373z M141.936,155.8c0.01,0,0.021,0.001,0.032,0.001v84.684
		c-17.718,1.859-34.039,8.468-47.678,18.518c-1.851-18.486-0.445-35.349,4.31-50.323C110.197,172.159,137.47,157.919,141.936,155.8z
		 M23.215,251.058c-0.101-30.513,10.55-60.22,29.988-83.647c9.881-11.898,24.768-18.544,40.207-18.544
		c4.457,0,8.962,0.555,13.402,1.696c0.613,0.159,1.235,0.297,1.85,0.449c-11.569,10.543-24.42,26.64-31.977,50
		c-7.553,23.344-8.523,49.571-3.012,78.493c-11.577,15.546-18.631,34.633-19.271,55.308
		C35.079,312.131,23.325,282.854,23.215,251.058z M77.535,337.878c0-41.203,33.521-74.724,74.724-74.724
		c18.051,0,35.479,6.534,49.072,18.398c15.918,13.893,33.264,23.633,51.555,28.947c33.053,9.603,79.668,13.15,123.294-18.598
		c2.333,2.127,4.791,3.948,7.23,5.752c4.889,3.614,9.945,7.351,15.323,14.752c5.377,7.401,7.37,13.364,9.295,19.131
		c1.255,3.756,2.524,7.554,4.53,11.281c-28.528,25.463-55.228,43.712-80.338,56.513H113.205
		C92.677,384.494,77.535,362.704,77.535,337.878z M438.5,461.228H74.081c-23.738,0-43.687-16.531-48.94-38.685H487.44
		C482.186,444.697,462.238,461.228,438.5,461.228z"/>
</g>
<g>
</g>
<g>
</g>
<g>
</g>
<g>
</g>
<g>
</g>
<g>
</g>
<g>
</g>
<g>
</g>
<g>
</g>
<g>
</g>
<g>
</g>
<g>
</g>
<g>
</g>
<g>
</g>
<g>
</g>
</svg>
